# xmcd
#
# Track frame offsets: 
#        150
#        17782
#        32047
#        48117
#        59885
#        69770
#        82202
#        93060
#        109415
#        118917
#        131575
#        147827
#        164792
#        177685
#        189457
#        200110
#        211762
#
# Disc length: 3000 seconds
#
# Revision: 0
# Processed by: cddbd v1.5.1PL0 Copyright (c) Steve Scherf et al.
# Submitted via: ExactAudioCopy v0.95b1
#
DISCID=050bb611
DTITLE=Merle Haggard -  2 CD Super Hit Set, Disc 2
DYEAR=2000
DGENRE=Country
TTITLE0=I Think I'll Just Stay Here And Drink
TTITLE1=Branded Man
TTITLE2=It's Not Love (But It's Not Bad)
TTITLE3=Carolyn
TTITLE4=Mama Tried
TTITLE5=The Roots Of My Raisin'
TTITLE6=Old Man From The Mountain
TTITLE7=Moma's Hungry Eyes
TTITLE8=The Legend Of Bonnie And Clyde
TTITLE9=I'm Always On A Mountain When I Fall
TTITLE10=Ramblin' Fever
TTITLE11=Today I Started Loving You Again
TTITLE12=Swinging Doors
TTITLE13=Turnin' Off A Memory
TTITLE14=Someday We'll Look Back
TTITLE15=From Graceland To The Promised Land
TTITLE16=The Farmer's Daughter
EXTD=
EXTT0=
EXTT1=
EXTT2=
EXTT3=
EXTT4=
EXTT5=
EXTT6=
EXTT7=
EXTT8=
EXTT9=
EXTT10=
EXTT11=
EXTT12=
EXTT13=
EXTT14=
EXTT15=
EXTT16=
PLAYORDER=
